<svg height="496pt" viewBox="0 0 496 496" width="496pt" xmlns="http://www.w3.org/2000/svg"><path d="m248 304c-22.054688 0-40 17.945312-40 40s17.945312 40 40 40 40-17.945312 40-40-17.945312-40-40-40zm0 64c-13.230469 0-24-10.769531-24-24s10.769531-24 24-24 24 10.769531 24 24-10.769531 24-24 24zm0 0"/><path d="m240 32h64v16h-64zm0 0"/><path d="m240 64h64v16h-64zm0 0"/><path d="m192 96h112v16h-112zm0 0"/><path d="m192 128h112v16h-112zm0 0"/><path d="m192 160h112v16h-112zm0 0"/><path d="m496 256v-64h-112v64h48v80h-96v-13.769531l-19.640625-6.550781 9.257813-18.511719-30.785157-30.785157-18.519531 9.265626-6.542969-19.648438h-13.769531v-48h80v-96h96v44.6875l-18.34375-18.34375-11.3125 11.3125 37.65625 37.65625 37.65625-37.65625-11.3125-11.3125-18.34375 18.34375v-60.6875h-112v-96h-123.3125l-52.6875 52.6875v43.3125h-112v60.6875l-18.34375-18.34375-11.3125 11.3125 37.65625 37.65625 37.65625-37.65625-11.3125-11.3125-18.34375 18.34375v-44.6875h96v96h80v48h-13.769531l-6.542969 19.648438-18.519531-9.265626-30.785157 30.785157 9.257813 18.511719-19.640625 6.550781v13.769531h-96v-80h48v-64h-112v64h48v129.136719c-13.769531 3.574219-24 16-24 30.863281 0 17.648438 14.351562 32 32 32s32-14.351562 32-32c0-14.863281-10.230469-27.289062-24-30.863281v-33.136719h48v97.472656c-9.289062 3.3125-16 12.113282-16 22.527344 0 13.230469 10.769531 24 24 24s24-10.769531 24-24c0-10.414062-6.710938-19.214844-16-22.527344v-97.472656h32v13.769531l19.640625 6.550781-9.257813 18.511719 30.785157 30.785157 18.519531-9.265626 6.542969 19.648438h43.53125l6.542969-19.648438 18.519531 9.265626 30.785156-30.785157-9.257813-18.511719 19.648438-6.550781v-13.769531h32v97.472656c-9.289062 3.3125-16 12.113282-16 22.527344 0 13.230469 10.769531 24 24 24s24-10.769531 24-24c0-10.414062-6.710938-19.214844-16-22.527344v-97.472656h48v33.136719c-13.769531 3.574219-24 16-24 30.863281 0 17.648438 14.351562 32 32 32s32-14.351562 32-32c0-14.863281-10.230469-27.289062-24-30.863281v-129.136719zm-288-228.6875v20.6875h-20.6875zm-32 36.6875h48v-48h96v176h-144zm-160 144h80v32h-80zm56 208c0 8.824219-7.175781 16-16 16s-16-7.175781-16-16 7.175781-16 16-16 16 7.175781 16 16zm48 64c-4.414062 0-8-3.59375-8-8s3.585938-8 8-8 8 3.59375 8 8-3.585938 8-8 8zm200-125.769531-18.351562 6.121093-1.351563 3.527344c-.402344 1.023438-.800781 2.042969-1.242187 3.03125l-1.550782 3.464844 8.648438 17.296875-14.472656 14.472656-17.296876-8.648437-3.460937 1.550781c-.984375.441406-1.984375.839844-3 1.226563l-3.5625 1.34375-6.128906 18.382812h-20.46875l-6.128907-18.382812-3.5625-1.34375c-1.015624-.386719-2.015624-.785157-3-1.226563l-3.460937-1.550781-17.296875 8.648437-14.472656-14.472656 8.648437-17.296875-1.550781-3.464844c-.449219-1-.839844-2.007812-1.242188-3.03125l-1.351562-3.527344-18.34375-6.121093v-20.46875l18.351562-6.121094 1.351563-3.527344c.402344-1.023437.800781-2.042969 1.242187-3.035156l1.550782-3.460937-8.648438-17.296876 14.472656-14.472656 17.296876 8.648438 3.460937-1.550782c.984375-.441406 1.984375-.839843 3-1.226562l3.5625-1.34375 6.128906-18.375h20.46875l6.128907 18.382812 3.5625 1.34375c1.015624.386719 2.015624.785157 3 1.226563l3.460937 1.550781 17.296875-8.648437 14.472656 14.472656-8.648437 17.296875 1.550781 3.464844c.449219 1 .839844 2.007812 1.242188 3.03125l1.351562 3.527344 18.34375 6.121093zm56 125.769531c-4.414062 0-8-3.59375-8-8s3.585938-8 8-8 8 3.59375 8 8-3.585938 8-8 8zm80-64c0 8.824219-7.175781 16-16 16s-16-7.175781-16-16 7.175781-16 16-16 16 7.175781 16 16zm-56-208h80v32h-80zm0 0"/></svg>